# xmcd CD database file
#
# Track frame offsets:
#	150
#	17177
#	34532
#	55900
#	79612
#	100202
#	118085
#
# Disc length: 1772 seconds
#
# Revision: 0
# Processed by: cddbd v1.5.2PL0 Copyright (c) Steve Scherf et al.
# Submitted via: CDex 1.51
#
DISCID=4f06ea07
DTITLE=Harajyuku BJ Girls - BJ TWO!
DYEAR=2005
DGENRE=Jazz
TTITLE0=Route 66 原宿 BJ Girls
TTITLE1=Want A Difference A Day Mode 織田かおり
TTITLE2=Cry Me A River 岩城文夏
TTITLE3=My Funny Valentine 白鳥吏南
TTITLE4=Manha De Carnaval (黒いオルフェ) 松原緋子
TTITLE5=Lover, Come Back To Me 工藤真由
TTITLE6=Tennessee Waltz 水橋舞
EXTD=YEAR: 2005
EXTT0=
EXTT1=
EXTT2=
EXTT3=
EXTT4=
EXTT5=
EXTT6=
PLAYORDER=
